<?xml version="1.0" encoding="UTF-8"?>
<svg height="128px" viewBox="0 0 128 128" width="128px" xmlns="http://www.w3.org/2000/svg" xmlns:xlink="http://www.w3.org/1999/xlink">
    <defs>
        <filter id="a" height="100%" width="100%" x="0%" y="0%">
            <feColorMatrix color-interpolation-filters="sRGB" values="0 0 0 0 1 0 0 0 0 1 0 0 0 0 1 0 0 0 1 0"/>
        </filter>
        <mask id="b">
            <g filter="url(#a)">
                <rect fill-opacity="0.35" height="153.6" width="153.6" x="-12.8" y="-12.8"/>
            </g>
        </mask>
        <clipPath id="c">
            <path d="m 0 0 h 128 v 128 h -128 z m 0 0"/>
        </clipPath>
        <mask id="d">
            <g filter="url(#a)">
                <rect fill-opacity="0.35" height="221.184" width="221.184" x="-46.592" y="-46.592"/>
            </g>
        </mask>
        <clipPath id="e">
            <rect height="152" width="192"/>
        </clipPath>
        <g id="f" clip-path="url(#e)">
            <path d="m 169 26 v 6 h 14 v -6 z m 0 0" fill="#241f31" fill-rule="evenodd"/>
        </g>
        <clipPath id="g">
            <rect height="128" width="128"/>
        </clipPath>
        <clipPath id="h">
            <rect height="128" width="128"/>
        </clipPath>
        <mask id="i">
            <g filter="url(#a)">
                <g clip-path="url(#h)" filter="url(#a)">
                    <g clip-path="url(#g)">
                        <path d="m 20 84 v 20 h 8 v 4 h 8 v -6 h 8 v 4 h 8 v 4 h 8 v 4 h 8 v -4 h 8 v -6 h -8 v 2 h -8 v -2 h 8 v -6 h 8 v 4 h 8 v 4 h 8 v -6 h 8 v 4 h 8 v -6 h -8 v -4 h 8 v -10 z m 56 4 h 8 v 6 h -8 z m -48 8 h 8 v 4 h -8 z m 24 0 h 8 v 4 h -8 z m 40 12 v 2 h -8 v 6 h 8 v -4 h 8 v -4 z m -56 2 v 6 h 8 v -6 z m 0 0" fill="#c0bfbc"/>
                        <path d="m 29.636719 8 c -4.230469 0 -9.636719 3.566406 -9.636719 8 v 86 h 8 v 4 h 8 v -6 h -8 v -6 h 8 v 6 h 8 v 4 h 8 v 4 h 8 v 4 h 8 v -4 h 8 v -8 h -8 v -4 h 8 v 4 h 8 v 4 h 8 v -6 h 8 v 4 h 8 v -86 c 0 -4.433594 -5.40625 -8 -9.636719 -8 z m 62.363281 96 v 4 h -8 v 6 h 8 v -4 h 8 v -6 z m -16 -18 h 8 v 6 h -8 z m -24 8 h 8 v 6 h -8 z m 8 8 h 8 v 4 h -8 z m -24 6 v 6 h 8 v -6 z m 0 0" fill="#ffffff"/>
                        <path d="m 28 16 v 16 h 42 v -4 h 30 v -12 z m 0 20 v 8 h 12 v -4 h 60 v -4 z m 0 12 v 12 h 58 v -4 h 14 v -8 z m 0 16 v 4 h 32 v -4 z m 0 8 v 12 h 18 v -4 h 54 v -8 z m 0 16 v 4 h 22 v -4 z m 0 0" fill="#deddda"/>
                        <g clip-path="url(#c)">
                            <g mask="url(#d)">
                                <use transform="matrix(1 0 0 1 -8 -16)" xlink:href="#f"/>
                            </g>
                        </g>
                    </g>
                </g>
            </g>
        </mask>
        <mask id="j">
            <g filter="url(#a)">
                <rect fill-opacity="0.8" height="184.32" width="184.32" x="-28.16" y="-28.16"/>
            </g>
        </mask>
        <linearGradient id="k" gradientTransform="matrix(0 0.37 -0.98462 0 295.38501 -30.360001)" gradientUnits="userSpaceOnUse" x1="300" x2="428" y1="235" y2="235">
            <stop offset="0" stop-color="#f9f06b"/>
            <stop offset="1" stop-color="#f5c211"/>
        </linearGradient>
        <clipPath id="l">
            <rect height="128" width="128"/>
        </clipPath>
        <clipPath id="m">
            <rect height="128" width="128"/>
        </clipPath>
    </defs>
    <path d="m 20 84 v 20 h 8 v 4 h 8 v -6 h 8 v 4 h 8 v 4 h 8 v 4 h 8 v -4 h 8 v -6 h -8 v 2 h -8 v -2 h 8 v -6 h 8 v 4 h 8 v 4 h 8 v -6 h 8 v 4 h 8 v -6 h -8 v -4 h 8 v -10 z m 56 4 h 8 v 6 h -8 z m -48 8 h 8 v 4 h -8 z m 24 0 h 8 v 4 h -8 z m 40 12 v 2 h -8 v 6 h 8 v -4 h 8 v -4 z m -56 2 v 6 h 8 v -6 z m 0 0" fill="#c0bfbc"/>
    <path d="m 29.636719 8 c -4.230469 0 -9.636719 3.566406 -9.636719 8 v 86 h 8 v 4 h 8 v -6 h -8 v -6 h 8 v 6 h 8 v 4 h 8 v 4 h 8 v 4 h 8 v -4 h 8 v -8 h -8 v -4 h 8 v 4 h 8 v 4 h 8 v -6 h 8 v 4 h 8 v -86 c 0 -4.433594 -5.40625 -8 -9.636719 -8 z m 62.363281 96 v 4 h -8 v 6 h 8 v -4 h 8 v -6 z m -16 -18 h 8 v 6 h -8 z m -24 8 h 8 v 6 h -8 z m 8 8 h 8 v 4 h -8 z m -24 6 v 6 h 8 v -6 z m 0 0" fill="#ffffff"/>
    <path d="m 28 16 v 16 h 42 v -4 h 30 v -12 z m 0 20 v 8 h 12 v -4 h 60 v -4 z m 0 12 v 12 h 58 v -4 h 14 v -8 z m 0 16 v 4 h 32 v -4 z m 0 8 v 12 h 18 v -4 h 54 v -8 z m 0 16 v 4 h 22 v -4 z m 0 0" fill="#deddda"/>
    <g mask="url(#b)">
        <use transform="matrix(1 0 0 1 -8 -16)" xlink:href="#f"/>
    </g>
    <g mask="url(#i)">
        <g clip-path="url(#m)">
            <g mask="url(#j)">
                <g clip-path="url(#l)">
                    <path d="m 128 80.640625 v 47.359375 h -128 v -47.359375 z m 0 0" fill="url(#k)"/>
                    <path d="m 13.308594 80.640625 l 47.355468 47.359375 h 21.214844 l -47.359375 -47.359375 z m 42.421875 0 l 47.363281 47.359375 h 21.214844 l -47.363282 -47.359375 z m 42.429687 0 l 29.839844 29.839844 v -21.210938 l -8.628906 -8.628906 z m -98.160156 7.90625 v 21.214844 l 18.238281 18.238281 h 21.214844 z m 0 0"/>
                </g>
            </g>
        </g>
    </g>
</svg>
