<?xml version="1.0" encoding="UTF-8"?>
<svg height="128px" viewBox="0 0 128 128" width="128px" xmlns="http://www.w3.org/2000/svg" xmlns:xlink="http://www.w3.org/1999/xlink">
    <filter id="a" height="100%" width="100%" x="0%" y="0%">
        <feColorMatrix color-interpolation-filters="sRGB" values="0 0 0 0 1 0 0 0 0 1 0 0 0 0 1 0 0 0 1 0"/>
    </filter>
    <mask id="b">
        <g filter="url(#a)">
            <rect fill-opacity="0.35" height="153.6" width="153.6" x="-12.8" y="-12.8"/>
        </g>
    </mask>
    <clipPath id="c">
        <rect height="152" width="192"/>
    </clipPath>
    <path d="m 20 84 v 20 h 8 v 4 h 8 v -6 h 8 v 4 h 8 v 4 h 8 v 4 h 8 v -4 h 8 v -6 h -8 v 2 h -8 v -2 h 8 v -6 h 8 v 4 h 8 v 4 h 8 v -6 h 8 v 4 h 8 v -6 h -8 v -4 h 8 v -10 z m 56 4 h 8 v 6 h -8 z m -48 8 h 8 v 4 h -8 z m 24 0 h 8 v 4 h -8 z m 40 12 v 2 h -8 v 6 h 8 v -4 h 8 v -4 z m -56 2 v 6 h 8 v -6 z m 0 0" fill="#c0bfbc"/>
    <path d="m 29.636719 8 c -4.230469 0 -9.636719 3.566406 -9.636719 8 v 86 h 8 v 4 h 8 v -6 h -8 v -6 h 8 v 6 h 8 v 4 h 8 v 4 h 8 v 4 h 8 v -4 h 8 v -8 h -8 v -4 h 8 v 4 h 8 v 4 h 8 v -6 h 8 v 4 h 8 v -86 c 0 -4.433594 -5.40625 -8 -9.636719 -8 z m 62.363281 96 v 4 h -8 v 6 h 8 v -4 h 8 v -6 z m -16 -18 h 8 v 6 h -8 z m -24 8 h 8 v 6 h -8 z m 8 8 h 8 v 4 h -8 z m -24 6 v 6 h 8 v -6 z m 0 0" fill="#ffffff"/>
    <path d="m 28 16 v 16 h 42 v -4 h 30 v -12 z m 0 20 v 8 h 12 v -4 h 60 v -4 z m 0 12 v 12 h 58 v -4 h 14 v -8 z m 0 16 v 4 h 32 v -4 z m 0 8 v 12 h 18 v -4 h 54 v -8 z m 0 16 v 4 h 22 v -4 z m 0 0" fill="#deddda"/>
    <g mask="url(#b)">
        <g clip-path="url(#c)" transform="matrix(1 0 0 1 -8 -16)">
            <path d="m 169 26 v 6 h 14 v -6 z m 0 0" fill="#241f31" fill-rule="evenodd"/>
        </g>
    </g>
</svg>
